<mxfile host="65bd71144e">
    <diagram id="XhxYUDU8VqfgVW95a9FP" name="Page-1">
        <mxGraphModel dx="1760" dy="570" grid="0" gridSize="10" guides="1" tooltips="1" connect="1" arrows="1" fold="1" page="0" pageScale="1" pageWidth="850" pageHeight="1100" background="#5E5E5E" math="0" shadow="0">
            <root>
                <mxCell id="0"/>
                <mxCell id="1" parent="0"/>
                <mxCell id="2" value="index.html" style="rounded=0;whiteSpace=wrap;html=1;verticalAlign=top;fontStyle=5;fontSize=20;" parent="1" vertex="1">
                    <mxGeometry x="97" y="130" width="280" height="250" as="geometry"/>
                </mxCell>
                <mxCell id="3" value="&lt;font style=&quot;font-size: 20px&quot;&gt;App.js&lt;br&gt;&lt;/font&gt;" style="rounded=0;whiteSpace=wrap;html=1;verticalAlign=top;fontStyle=5" parent="1" vertex="1">
                    <mxGeometry x="550" y="280" width="450" height="180" as="geometry"/>
                </mxCell>
                <mxCell id="4" value="index.js" style="rounded=0;whiteSpace=wrap;html=1;verticalAlign=top;fontStyle=4" parent="1" vertex="1">
                    <mxGeometry x="97" y="200" width="280" height="180" as="geometry"/>
                </mxCell>
                <mxCell id="5" value="&lt;div style=&quot;color: rgb(212 , 212 , 212) ; background-color: rgb(30 , 30 , 30) ; font-family: &amp;#34;droid sans mono&amp;#34; , monospace , monospace ; font-size: 14px ; line-height: 19px&quot;&gt;&lt;div&gt;&lt;span style=&quot;color: #9cdcfe&quot;&gt;ReactDOM&lt;/span&gt;.&lt;span style=&quot;color: #dcdcaa&quot;&gt;render&lt;/span&gt;(&lt;/div&gt;&lt;div&gt;  &lt;span style=&quot;color: #808080&quot;&gt;&amp;lt;&lt;/span&gt;&lt;span style=&quot;color: #4ec9b0&quot;&gt;React.StrictMode&lt;/span&gt;&lt;span style=&quot;color: #808080&quot;&gt;&amp;gt;&lt;/span&gt;&lt;/div&gt;&lt;div&gt;    &lt;span style=&quot;color: #808080&quot;&gt;&amp;lt;&lt;/span&gt;&lt;span style=&quot;color: #4ec9b0&quot;&gt;App&lt;/span&gt; &lt;span style=&quot;color: #808080&quot;&gt;/&amp;gt;&lt;/span&gt;&lt;/div&gt;&lt;div&gt;  &lt;span style=&quot;color: #808080&quot;&gt;&amp;lt;/&lt;/span&gt;&lt;span style=&quot;color: #4ec9b0&quot;&gt;React.StrictMode&lt;/span&gt;&lt;span style=&quot;color: #808080&quot;&gt;&amp;gt;&lt;/span&gt;,&lt;/div&gt;&lt;div&gt;  &lt;span style=&quot;color: #9cdcfe&quot;&gt;document&lt;/span&gt;.&lt;span style=&quot;color: #dcdcaa&quot;&gt;getElementById&lt;/span&gt;(&lt;span style=&quot;color: #ce9178&quot;&gt;'root'&lt;/span&gt;)&lt;/div&gt;&lt;div&gt;);&lt;/div&gt;&lt;/div&gt;" style="rounded=0;whiteSpace=wrap;html=1;" parent="1" vertex="1">
                    <mxGeometry x="147" y="270" width="170" height="80" as="geometry"/>
                </mxCell>
                <mxCell id="6" value="" style="shape=flexArrow;endArrow=classic;html=1;fontSize=20;exitX=0.941;exitY=0.375;exitDx=0;exitDy=0;exitPerimeter=0;entryX=0.004;entryY=0.106;entryDx=0;entryDy=0;entryPerimeter=0;fillColor=#008a00;strokeColor=#005700;" parent="1" source="5" target="3" edge="1">
                    <mxGeometry width="50" height="50" relative="1" as="geometry">
                        <mxPoint x="425" y="300" as="sourcePoint"/>
                        <mxPoint x="495" y="300" as="targetPoint"/>
                    </mxGeometry>
                </mxCell>
                <mxCell id="7" value="&lt;font style=&quot;font-size: 14px&quot;&gt;const App = () =&amp;gt; {&lt;br&gt;&amp;nbsp; &amp;nbsp; return &amp;lt;div&amp;gt;&lt;br&gt;&lt;/font&gt;&lt;div style=&quot;color: rgb(212 , 212 , 212) ; background-color: rgb(30 , 30 , 30) ; font-family: &amp;#34;droid sans mono&amp;#34; , monospace , monospace ; line-height: 19px ; font-size: 14px&quot;&gt;&lt;font style=&quot;font-size: 14px&quot;&gt;&lt;span style=&quot;color: #808080&quot;&gt;&amp;nbsp; &amp;nbsp; &amp;nbsp;&amp;lt;&lt;/span&gt;&lt;span style=&quot;color: #4ec9b0&quot;&gt;ExternalCourseList&lt;/span&gt; &lt;span style=&quot;color: #9cdcfe&quot;&gt;courses&lt;/span&gt;=&lt;span style=&quot;color: #569cd6&quot;&gt;{&lt;/span&gt;&lt;span style=&quot;color: #4fc1ff&quot;&gt;filteredCourses&lt;/span&gt;&lt;span style=&quot;color: #569cd6&quot;&gt;}&lt;/span&gt;&lt;span style=&quot;color: #808080&quot;&gt;/&amp;gt;&lt;/span&gt;&lt;/font&gt;&lt;/div&gt;&lt;font style=&quot;font-size: 14px&quot;&gt;&amp;nbsp; &amp;nbsp;&amp;lt;/div&amp;gt;&lt;br&gt;&lt;/font&gt;}" style="rounded=0;whiteSpace=wrap;html=1;fontSize=20;align=left;" parent="1" vertex="1">
                    <mxGeometry x="550" y="350" width="450" height="110" as="geometry"/>
                </mxCell>
                <mxCell id="9" value="&lt;font style=&quot;font-size: 20px&quot;&gt;CourseList.js&lt;/font&gt;" style="rounded=0;whiteSpace=wrap;html=1;verticalAlign=top;fontStyle=5" parent="1" vertex="1">
                    <mxGeometry x="1200" y="343" width="450" height="260" as="geometry"/>
                </mxCell>
                <mxCell id="10" value="&lt;div style=&quot;background-color: rgb(30 , 30 , 30) ; font-family: &amp;#34;droid sans mono&amp;#34; , monospace , monospace ; font-size: 14px ; line-height: 19px&quot;&gt;&lt;div style=&quot;color: rgb(212 , 212 , 212)&quot;&gt;&lt;span style=&quot;color: #569cd6&quot;&gt;const&lt;/span&gt; &lt;span style=&quot;color: #dcdcaa&quot;&gt;ExternalCourseList&lt;/span&gt; = (&lt;span style=&quot;color: #9cdcfe&quot;&gt;props&lt;/span&gt;) &lt;span style=&quot;color: #569cd6&quot;&gt;=&amp;gt;&lt;/span&gt; {&lt;/div&gt;&lt;div style=&quot;color: rgb(212 , 212 , 212)&quot;&gt;    &lt;span style=&quot;color: #c586c0&quot;&gt;return&lt;/span&gt; &lt;span style=&quot;color: #9cdcfe&quot;&gt;props&lt;/span&gt;.&lt;span style=&quot;color: #9cdcfe&quot;&gt;courses&lt;/span&gt;.&lt;span style=&quot;color: #dcdcaa&quot;&gt;map&lt;/span&gt;(&lt;/div&gt;&lt;div style=&quot;color: rgb(212 , 212 , 212)&quot;&gt;&lt;span style=&quot;color: rgb(156 , 220 , 254)&quot;&gt;&amp;nbsp; course&lt;/span&gt; &lt;span style=&quot;color: rgb(86 , 156 , 214)&quot;&gt;=&amp;gt;&lt;/span&gt;&lt;br&gt;&lt;/div&gt;&lt;div style=&quot;color: rgb(212 , 212 , 212)&quot;&gt;&amp;nbsp; {&lt;/div&gt;&lt;div style=&quot;color: rgb(212 , 212 , 212)&quot;&gt;&lt;span style=&quot;color: #c586c0&quot;&gt;&amp;nbsp; &amp;nbsp; return&lt;/span&gt; &lt;span style=&quot;color: #808080&quot;&gt;&amp;lt;&lt;/span&gt;&lt;span style=&quot;color: #569cd6&quot;&gt;div&lt;/span&gt; &lt;span style=&quot;color: #9cdcfe&quot;&gt;key&lt;/span&gt;=&lt;span style=&quot;color: #569cd6&quot;&gt;{&lt;/span&gt;&lt;span style=&quot;color: #9cdcfe&quot;&gt;course&lt;/span&gt;.&lt;span style=&quot;color: #9cdcfe&quot;&gt;id&lt;/span&gt;&lt;span style=&quot;color: #569cd6&quot;&gt;}&lt;/span&gt;&lt;span style=&quot;color: #808080&quot;&gt;&amp;gt;&lt;/span&gt;&lt;/div&gt;&lt;div style=&quot;color: rgb(212 , 212 , 212)&quot;&gt;&lt;span style=&quot;color: #808080&quot;&gt;&amp;nbsp; &amp;nbsp; &amp;lt;&lt;/span&gt;&lt;span style=&quot;color: #569cd6&quot;&gt;span&lt;/span&gt;&lt;span style=&quot;color: #808080&quot;&gt;&amp;gt;&lt;/span&gt;&lt;/div&gt;&lt;div style=&quot;color: rgb(212 , 212 , 212)&quot;&gt;&lt;span style=&quot;color: #808080&quot;&gt;&amp;nbsp; &amp;nbsp; &amp;lt;&lt;/span&gt;&lt;span style=&quot;color: #569cd6&quot;&gt;a&lt;/span&gt; &lt;span style=&quot;color: #9cdcfe&quot;&gt;href&lt;/span&gt;=&lt;span style=&quot;color: #569cd6&quot;&gt;{&lt;/span&gt;&lt;span style=&quot;color: #9cdcfe&quot;&gt;course&lt;/span&gt;.&lt;span style=&quot;color: #9cdcfe&quot;&gt;url&lt;/span&gt;&lt;span style=&quot;color: #569cd6&quot;&gt;}&lt;/span&gt;&lt;span style=&quot;color: #808080&quot;&gt;&amp;gt;&amp;lt;&lt;/span&gt;&lt;span style=&quot;color: #569cd6&quot;&gt;h4&lt;/span&gt;&lt;span style=&quot;color: #808080&quot;&gt;&amp;gt;&lt;/span&gt;&lt;span style=&quot;color: #569cd6&quot;&gt;{&lt;/span&gt;&lt;span style=&quot;color: #9cdcfe&quot;&gt;course&lt;/span&gt;.&lt;span style=&quot;color: #9cdcfe&quot;&gt;title&lt;/span&gt;&lt;span style=&quot;color: #569cd6&quot;&gt;}&lt;/span&gt;&lt;span style=&quot;color: #808080&quot;&gt;&amp;lt;/&lt;/span&gt;&lt;span style=&quot;color: #569cd6&quot;&gt;h4&lt;/span&gt;&lt;span style=&quot;color: #808080&quot;&gt;&amp;gt;&amp;lt;/&lt;/span&gt;&lt;span style=&quot;color: #569cd6&quot;&gt;a&lt;/span&gt;&lt;span style=&quot;color: #808080&quot;&gt;&amp;gt;&lt;/span&gt;&lt;/div&gt;&lt;div&gt;&lt;font color=&quot;#808080&quot;&gt;&amp;nbsp; &amp;nbsp; ...&lt;/font&gt;&lt;/div&gt;&lt;div style=&quot;color: rgb(212 , 212 , 212)&quot;&gt;&lt;span style=&quot;color: #808080&quot;&gt;&amp;nbsp; &amp;nbsp; &amp;lt;/&lt;/span&gt;&lt;span style=&quot;color: #569cd6&quot;&gt;div&lt;/span&gt;&lt;span style=&quot;color: #808080&quot;&gt;&amp;gt;&lt;/span&gt;&lt;/div&gt;&lt;div style=&quot;color: rgb(212 , 212 , 212)&quot;&gt;&amp;nbsp; });&lt;/div&gt;&lt;div style=&quot;color: rgb(212 , 212 , 212)&quot;&gt;  }&lt;/div&gt;&lt;/div&gt;" style="rounded=0;whiteSpace=wrap;html=1;fontSize=20;align=left;" parent="1" vertex="1">
                    <mxGeometry x="1200" y="393" width="450" height="210" as="geometry"/>
                </mxCell>
                <mxCell id="11" value="" style="shape=flexArrow;endArrow=classic;html=1;fontSize=20;exitX=0.941;exitY=0.375;exitDx=0;exitDy=0;exitPerimeter=0;entryX=0.004;entryY=0.106;entryDx=0;entryDy=0;entryPerimeter=0;fillColor=#008a00;strokeColor=#005700;" parent="1" edge="1">
                    <mxGeometry width="50" height="50" relative="1" as="geometry">
                        <mxPoint x="975" y="405.33" as="sourcePoint"/>
                        <mxPoint x="1196.83" y="404.4099999999999" as="targetPoint"/>
                    </mxGeometry>
                </mxCell>
                <mxCell id="12" value="&lt;div style=&quot;color: rgb(212 , 212 , 212) ; background-color: rgb(30 , 30 , 30) ; font-family: &amp;#34;droid sans mono&amp;#34; , monospace , monospace ; font-size: 14px ; line-height: 19px&quot;&gt;&lt;div&gt;  &lt;span style=&quot;color: #569cd6&quot;&gt;const&lt;/span&gt; &lt;span style=&quot;color: #4fc1ff&quot;&gt;filteredCourses&lt;/span&gt; = &lt;span style=&quot;color: #4fc1ff&quot;&gt;myCourses&lt;/span&gt;.&lt;span style=&quot;color: #dcdcaa&quot;&gt;filter&lt;/span&gt;(&lt;span style=&quot;color: #9cdcfe&quot;&gt;course&lt;/span&gt; &lt;span style=&quot;color: #569cd6&quot;&gt;=&amp;gt;&lt;/span&gt; {&lt;/div&gt;&lt;div&gt;    &lt;span style=&quot;color: #c586c0&quot;&gt;return&lt;/span&gt; &lt;span style=&quot;color: #9cdcfe&quot;&gt;course&lt;/span&gt;.&lt;span style=&quot;color: #9cdcfe&quot;&gt;title&lt;/span&gt;.&lt;span style=&quot;color: #dcdcaa&quot;&gt;includes&lt;/span&gt;(&lt;span style=&quot;color: #4fc1ff&quot;&gt;searchText&lt;/span&gt;) || &lt;span style=&quot;color: #9cdcfe&quot;&gt;course&lt;/span&gt;.&lt;span style=&quot;color: #9cdcfe&quot;&gt;author&lt;/span&gt;.&lt;span style=&quot;color: #dcdcaa&quot;&gt;includes&lt;/span&gt;(&lt;span style=&quot;color: #4fc1ff&quot;&gt;searchText&lt;/span&gt;);&lt;/div&gt;&lt;div&gt;  });&lt;/div&gt;&lt;/div&gt;" style="rounded=0;whiteSpace=wrap;html=1;fontSize=20;align=left;" vertex="1" parent="1">
                    <mxGeometry x="550" y="500" width="450" height="110" as="geometry"/>
                </mxCell>
                <mxCell id="13" value="" style="shape=flexArrow;endArrow=classic;html=1;fontSize=20;exitX=0.941;exitY=0.375;exitDx=0;exitDy=0;exitPerimeter=0;entryX=0.711;entryY=0.727;entryDx=0;entryDy=0;entryPerimeter=0;fillColor=#008a00;strokeColor=#005700;" edge="1" parent="1" target="7">
                    <mxGeometry width="50" height="50" relative="1" as="geometry">
                        <mxPoint x="664.0899999999999" y="510.91999999999996" as="sourcePoint"/>
                        <mxPoint x="885.9199999999998" y="509.9999999999999" as="targetPoint"/>
                    </mxGeometry>
                </mxCell>
                <mxCell id="14" value="&lt;div style=&quot;color: rgb(212 , 212 , 212) ; background-color: rgb(30 , 30 , 30) ; font-family: &amp;#34;droid sans mono&amp;#34; , monospace , monospace ; font-size: 14px ; line-height: 19px&quot;&gt;&lt;div style=&quot;font-family: &amp;#34;droid sans mono&amp;#34; , monospace , monospace ; line-height: 19px&quot;&gt;&lt;div&gt;  &lt;span style=&quot;color: #569cd6&quot;&gt;const&lt;/span&gt; &lt;span style=&quot;color: #dcdcaa&quot;&gt;handleSearchInputChange&lt;/span&gt; = &lt;span style=&quot;color: #9cdcfe&quot;&gt;event&lt;/span&gt; &lt;span style=&quot;color: #569cd6&quot;&gt;=&amp;gt;&lt;/span&gt; {&lt;/div&gt;&lt;div&gt;&lt;span style=&quot;color: rgb(220 , 220 , 170)&quot;&gt;&amp;nbsp; setSearchText&lt;/span&gt;(&lt;span style=&quot;color: rgb(156 , 220 , 254)&quot;&gt;event&lt;/span&gt;.&lt;span style=&quot;color: rgb(156 , 220 , 254)&quot;&gt;target&lt;/span&gt;.&lt;span style=&quot;color: rgb(156 , 220 , 254)&quot;&gt;value&lt;/span&gt;);&lt;br&gt;&lt;/div&gt;&lt;div&gt;  }&lt;/div&gt;&lt;/div&gt;&lt;/div&gt;" style="rounded=0;whiteSpace=wrap;html=1;fontSize=20;align=left;" vertex="1" parent="1">
                    <mxGeometry x="550" y="800" width="450" height="80" as="geometry"/>
                </mxCell>
                <mxCell id="16" value="&lt;div style=&quot;color: rgb(212 , 212 , 212) ; background-color: rgb(30 , 30 , 30) ; font-family: &amp;#34;droid sans mono&amp;#34; , monospace , monospace ; font-size: 14px ; line-height: 19px&quot;&gt;&lt;div style=&quot;font-family: &amp;#34;droid sans mono&amp;#34; , monospace , monospace ; line-height: 19px&quot;&gt;&lt;div style=&quot;font-family: &amp;#34;droid sans mono&amp;#34; , monospace , monospace ; line-height: 19px&quot;&gt;&lt;span style=&quot;color: #569cd6&quot;&gt;const&lt;/span&gt; [&lt;span style=&quot;color: #4fc1ff&quot;&gt;searchText&lt;/span&gt;, &lt;span style=&quot;color: #dcdcaa&quot;&gt;setSearchText&lt;/span&gt;] = &lt;span style=&quot;color: #dcdcaa&quot;&gt;useState&lt;/span&gt;(&lt;span style=&quot;color: #ce9178&quot;&gt;''&lt;/span&gt;);&lt;/div&gt;&lt;/div&gt;&lt;/div&gt;" style="rounded=0;whiteSpace=wrap;html=1;fontSize=20;align=left;" vertex="1" parent="1">
                    <mxGeometry x="550" y="670" width="450" height="70" as="geometry"/>
                </mxCell>
                <mxCell id="15" value="" style="shape=flexArrow;endArrow=classic;html=1;fontSize=20;entryX=0.511;entryY=0.636;entryDx=0;entryDy=0;entryPerimeter=0;fillColor=#008a00;strokeColor=#005700;exitX=0.25;exitY=0;exitDx=0;exitDy=0;" edge="1" parent="1" source="14" target="16">
                    <mxGeometry width="50" height="50" relative="1" as="geometry">
                        <mxPoint x="680" y="790" as="sourcePoint"/>
                        <mxPoint x="805.8599999999998" y="569.0500000000002" as="targetPoint"/>
                    </mxGeometry>
                </mxCell>
                <mxCell id="17" value="" style="shape=flexArrow;endArrow=classic;html=1;fontSize=20;exitX=0.222;exitY=0.364;exitDx=0;exitDy=0;exitPerimeter=0;entryX=0.533;entryY=0.636;entryDx=0;entryDy=0;entryPerimeter=0;fillColor=#008a00;strokeColor=#005700;" edge="1" parent="1" source="16" target="12">
                    <mxGeometry width="50" height="50" relative="1" as="geometry">
                        <mxPoint x="650" y="830.05" as="sourcePoint"/>
                        <mxPoint x="789.9499999999998" y="709.96" as="targetPoint"/>
                    </mxGeometry>
                </mxCell>
                <mxCell id="18" value="&lt;div style=&quot;color: rgb(212 , 212 , 212) ; background-color: rgb(30 , 30 , 30) ; font-family: &amp;#34;droid sans mono&amp;#34; , monospace , monospace ; font-size: 14px ; line-height: 19px&quot;&gt;&lt;div style=&quot;font-family: &amp;#34;droid sans mono&amp;#34; , monospace , monospace ; line-height: 19px&quot;&gt;&lt;div style=&quot;font-family: &amp;#34;droid sans mono&amp;#34; , monospace , monospace ; line-height: 19px&quot;&gt;&lt;span style=&quot;color: #808080&quot;&gt;&amp;lt;&lt;/span&gt;&lt;span style=&quot;color: #569cd6&quot;&gt;input&lt;/span&gt; &lt;span style=&quot;color: #9cdcfe&quot;&gt;id&lt;/span&gt;=&lt;span style=&quot;color: #ce9178&quot;&gt;&quot;searchInput&quot;&lt;/span&gt; &lt;span style=&quot;color: #9cdcfe&quot;&gt;type&lt;/span&gt;=&lt;span style=&quot;color: #ce9178&quot;&gt;&quot;text&quot;&lt;/span&gt; &lt;span style=&quot;color: #9cdcfe&quot;&gt;onChange&lt;/span&gt;=&lt;span style=&quot;color: #569cd6&quot;&gt;{&lt;/span&gt;&lt;span style=&quot;color: #dcdcaa&quot;&gt;handleSearchInputChange&lt;/span&gt;&lt;span style=&quot;color: #569cd6&quot;&gt;}&lt;/span&gt; &lt;span style=&quot;color: #808080&quot;&gt;/&amp;gt;&lt;/span&gt;&lt;/div&gt;&lt;/div&gt;&lt;/div&gt;" style="rounded=0;whiteSpace=wrap;html=1;fontSize=20;align=left;" vertex="1" parent="1">
                    <mxGeometry x="500" y="940" width="630" height="110" as="geometry"/>
                </mxCell>
                <mxCell id="19" value="" style="shape=flexArrow;endArrow=classic;html=1;fontSize=20;exitX=0.698;exitY=0.364;exitDx=0;exitDy=0;exitPerimeter=0;fillColor=#008a00;strokeColor=#005700;entryX=0.444;entryY=0.909;entryDx=0;entryDy=0;entryPerimeter=0;" edge="1" parent="1" source="18" target="14">
                    <mxGeometry width="50" height="50" relative="1" as="geometry">
                        <mxPoint x="650" y="830.05" as="sourcePoint"/>
                        <mxPoint x="540" y="810" as="targetPoint"/>
                    </mxGeometry>
                </mxCell>
                <mxCell id="20" value="External&lt;br style=&quot;font-size: 14px;&quot;&gt;React Component" style="text;html=1;strokeColor=none;fillColor=none;align=center;verticalAlign=middle;whiteSpace=wrap;rounded=0;fontSize=14;" vertex="1" parent="1">
                    <mxGeometry x="388" y="256" width="126" height="30" as="geometry"/>
                </mxCell>
                <mxCell id="21" value="&lt;font style=&quot;font-size: 14px&quot;&gt;External&lt;br&gt;React Component&lt;br&gt;(with passing of arg)&lt;/font&gt;" style="text;html=1;strokeColor=none;fillColor=none;align=center;verticalAlign=middle;whiteSpace=wrap;rounded=0;fontSize=20;" vertex="1" parent="1">
                    <mxGeometry x="1030" y="343" width="135" height="30" as="geometry"/>
                </mxCell>
                <mxCell id="22" value="&lt;span style=&quot;font-size: 14px&quot;&gt;Passing in an expression&lt;/span&gt;" style="text;html=1;strokeColor=none;fillColor=none;align=center;verticalAlign=middle;whiteSpace=wrap;rounded=0;fontSize=20;" vertex="1" parent="1">
                    <mxGeometry x="752" y="460" width="211" height="30" as="geometry"/>
                </mxCell>
                <mxCell id="23" value="&lt;span style=&quot;font-size: 14px&quot;&gt;Triggering a useState Hook&lt;/span&gt;" style="text;html=1;strokeColor=none;fillColor=none;align=center;verticalAlign=middle;whiteSpace=wrap;rounded=0;fontSize=20;" vertex="1" parent="1">
                    <mxGeometry x="722" y="625" width="211" height="30" as="geometry"/>
                </mxCell>
                <mxCell id="24" value="&lt;span style=&quot;font-size: 14px&quot;&gt;Updating a useState variable&lt;/span&gt;" style="text;html=1;strokeColor=none;fillColor=none;align=center;verticalAlign=middle;whiteSpace=wrap;rounded=0;fontSize=20;" vertex="1" parent="1">
                    <mxGeometry x="732" y="751" width="211" height="30" as="geometry"/>
                </mxCell>
                <mxCell id="25" value="&lt;span style=&quot;font-size: 14px&quot;&gt;Attaching an event handler&lt;/span&gt;" style="text;html=1;strokeColor=none;fillColor=none;align=center;verticalAlign=middle;whiteSpace=wrap;rounded=0;fontSize=20;" vertex="1" parent="1">
                    <mxGeometry x="861" y="898" width="211" height="30" as="geometry"/>
                </mxCell>
            </root>
        </mxGraphModel>
    </diagram>
</mxfile>